<svg width="376" height="129" viewBox="0 0 376 129" fill="none" xmlns="http://www.w3.org/2000/svg">
<path d="M0.499993 22L375.5 29L376 105L0.49999 86.5L0.499993 22Z" fill="black"/>
<path d="M0.499954 55.7386L0.499955 68.2199L0.499999 93L47.5 98L220.5 111L300.118 107.5L376 114L376 68L363.934 64.2624L352.975 67.3066L348.714 70.3508L333.798 74.3083L331.059 76.1348L312.186 76.1348L304.272 77.3525L300.118 72.4818L298.184 70.3508L295.748 66.3934L283.572 58.7828L274.136 64.2624L268.657 72.4818L260.743 68.5243L258.206 66.9023L252.828 64.2624L231.52 68.5243L215.692 71.8729L201.994 76.1348L187.382 81.0056L171.249 82.8321L160.9 81.0056L137.765 71.8729L135.026 67.0022L120.719 56.9563L106.412 66.3934L96.9759 66.3934L86.322 60.6094L76.5812 63.958L61.9701 59.0873L44.6193 57.8696L31.2258 58.4784L18.441 53.9121L11.1354 56.3475L0.499954 55.7386Z" fill="#726559"/>
<path d="M4.52954 39.9402L0.500002 40.5L0.500039 22.4989L371.5 24L375.5 20.5L375.5 59.3029L361.147 55.8715L355.755 50.9696L348.647 51.7049L345.216 57.8323L325.608 64.9401L305.755 63.9597L298.892 55.8715L288.108 48.5186L279.53 50.2343L268.255 55.8715L255.02 50.9696L247.667 57.8323L235.167 57.8323L221.196 61.7539L199.628 67.146L185.167 72.048L167.765 73.7637L145.951 63.4696L124.628 45.0872L120.216 49.9892L110.412 55.6264L105.51 56.8519L91.2942 47.7833L80.2648 50.9696L53.3041 45.0872L34.4315 45.0872L17.7648 41.901L4.52954 39.9402Z" fill="#726559"/>
<path d="M19 96.5L0.5 101.5V79L11.5 75.5L69 83.5L92 80L126 97.5L163 104L203.5 97.5L220 108.5L245.5 89.5L269.5 97.5H319.5L355 104L372 89.5L376 91.5V123.5L367 116L350.5 119L338 119.5L322 112L298.5 119L276.5 110.5L235.5 128.5L162 128L136.5 115.5L110.5 112.5L81.5 115.5H47.5L19 96.5Z" fill="#514742"/>
<path d="M5 29.5L0.5 31V8L16.5 12L44 8L89 15L105.5 22L150.5 5.5L177.5 8L198.5 17.5L231 8H255L277 13L328.5 0L357.5 11L371.5 22L375.5 20.5V44L369 46L362 41.5H343L338.5 46.5L327.5 41.5L310.5 49L272 31L228 49L189 54L175.5 49L164 51.5L125.5 30L113.5 38L100 36.5L81.5 39.5L64.5 33H35L5 29.5Z" fill="#514742"/>
</svg>
