<?xml version="1.0" encoding="utf-8"?>
<!-- Generator: Adobe Illustrator 26.2.1, SVG Export Plug-In . SVG Version: 6.00 Build 0)  -->
<svg version="1.1" id="Layer_1" xmlns="http://www.w3.org/2000/svg" xmlns:xlink="http://www.w3.org/1999/xlink" x="0px" y="0px"
	 viewBox="0 0 376 129" style="enable-background:new 0 0 376 129;" xml:space="preserve">
<style type="text/css">
	.st0{fill:#726559;}
	.st1{fill:#514742;}
	.st2{fill:#1E8A49;stroke:#FFFFFF;stroke-width:4;}
	.st3{fill:#1E8A49;stroke:#FFFFFF;stroke-width:2;}
</style>
<path d="M0.5,22l375,7l0.5,76L0.5,86.5L0.5,22z"/>
<path class="st0" d="M0.5,55.7l0,12.5l0,24.8l47,5l173,13l79.6-3.5L376,114V68l-12.1-3.7l-11,3l-4.3,3l-14.9,4l-2.7,1.8h-18.9
	l-7.9,1.2l-4.2-4.9l-1.9-2.1l-2.4-4l-12.2-7.6l-9.4,5.5l-5.5,8.2l-7.9-4l-2.5-1.6l-5.4-2.6l-21.3,4.3l-15.8,3.3L202,76.1L187.4,81
	l-16.1,1.8L160.9,81l-23.1-9.1L135,67l-14.3-10l-14.3,9.4H97l-10.7-5.8L76.6,64L62,59.1l-17.4-1.2l-13.4,0.6l-12.8-4.6l-7.3,2.4
	L0.5,55.7z"/>
<path class="st0" d="M4.5,39.9l-4,0.6l0-18l371,1.5l4-3.5v38.8l-14.4-3.4l-5.4-4.9l-7.1,0.7l-3.4,6.1l-19.6,7.1l-19.9-1l-6.9-8.1
	l-10.8-7.4l-8.6,1.7l-11.3,5.6L255,51l-7.4,6.9h-12.5l-14,3.9l-21.6,5.4L185.2,72l-17.4,1.7L146,63.5l-21.3-18.4l-4.4,4.9l-9.8,5.6
	l-4.9,1.2l-14.2-9.1l-11,3.2l-27-5.9H34.4l-16.7-3.2L4.5,39.9z"/>
<path class="st1" d="M19,96.5l-18.5,5V79l11-3.5l57.5,8L92,80l34,17.5l37,6.5l40.5-6.5l16.5,11l25.5-19l24,8h50L355,104l17-14.5l4,2
	v32l-9-7.5l-16.5,3l-12.5,0.5l-16-7.5l-23.5,7l-22-8.5l-41,18L162,128l-25.5-12.5l-26-3l-29,3h-34L19,96.5z"/>
<path class="st1" d="M5,29.5L0.5,31V8l16,4L44,8l45,7l16.5,7l45-16.5l27,2.5l21,9.5L231,8h24l22,5l51.5-13l29,11l14,11l4-1.5V44
	l-6.5,2l-7-4.5h-19l-4.5,5l-11-5l-17,7.5L272,31l-44,18l-39,5l-13.5-5L164,51.5L125.5,30l-12,8L100,36.5l-18.5,3l-17-6.5H35L5,29.5z
	"/>
<path class="st2" d="M352,44c0,6.4-7.6,17.8-11,22.5c-0.8,1.1-2.3,1.1-3.1,0c-3.4-4.7-11-16.1-11-22.5c0-7.8,5.6-14.1,12.5-14.1
	C346.4,29.9,352,36.2,352,44z"/>
<path class="st3" d="M95,37.4c0,4.5-6.1,12.5-8.8,15.8c-0.6,0.8-1.8,0.8-2.5,0C81,50,75,41.9,75,37.4c0-5.5,4.5-9.9,10-9.9
	C90.5,27.6,95,32,95,37.4z"/>
<path class="st3" d="M264,43.9c0,4.5-6.1,12.5-8.8,15.8c-0.6,0.8-1.8,0.8-2.5,0c-2.7-3.3-8.8-11.3-8.8-15.8c0-5.5,4.5-9.9,10-9.9
	C259.5,34,264,38.4,264,43.9z"/>
</svg>
