<?xml version="1.0" encoding="utf-8"?>
<!-- Generator: Adobe Illustrator 26.2.1, SVG Export Plug-In . SVG Version: 6.00 Build 0)  -->
<svg version="1.1" id="Layer_1" xmlns="http://www.w3.org/2000/svg" xmlns:xlink="http://www.w3.org/1999/xlink" x="0px" y="0px"
	 viewBox="0 0 375 525" style="enable-background:new 0 0 375 525;" xml:space="preserve">
<style type="text/css">
	.st0{clip-path:url(#SVGID_00000096738030614387902580000017192151140783946662_);}
	.st1{fill:#FFFFFF;}
	.st2{fill:url(#SVGID_00000147918576785711531180000012423760388169997200_);stroke:#1E8A49;stroke-width:4;}
	.st3{fill:none;stroke:#1E8A49;stroke-width:4;}
	.st4{fill:#FFFFFF;stroke:#1E8A49;stroke-width:4;}
	.st5{fill:#F14C4C;}
</style>
<g>
	<g>
		<defs>
			<path id="SVGID_1_" d="M20,0h335c11,0,20,5.8,20,12.9V512c0,7.1-9,12.9-20,12.9H20c-11,0-20-5.8-20-12.9V12.9C0,5.8,9,0,20,0z"/>
		</defs>
		<clipPath id="SVGID_00000012434064037176224340000002460485100135071678_">
			<use xlink:href="#SVGID_1_"  style="overflow:visible;"/>
		</clipPath>
		<g style="clip-path:url(#SVGID_00000012434064037176224340000002460485100135071678_);">
			<path class="st1" d="M20,0h335c11,0,20,9,20,20v772c0,11-9,20-20,20H20c-11,0-20-9-20-20V20C0,9,9,0,20,0z"/>
			
				<linearGradient id="SVGID_00000181776984721004226770000002155099877537716146_" gradientUnits="userSpaceOnUse" x1="187.5" y1="-668" x2="187.5" y2="32" gradientTransform="matrix(1 0 0 1 0 780)">
				<stop  offset="0" style="stop-color:#1E8A49;stop-opacity:0.31"/>
				<stop  offset="1" style="stop-color:#C7C7C7;stop-opacity:0"/>
			</linearGradient>
			<path style="fill:url(#SVGID_00000181776984721004226770000002155099877537716146_);stroke:#1E8A49;stroke-width:4;" d="
				M50.2,213.5L0,275.7V812h375V239.7l-54.4-80.4L281,213.5l-72.3-88.4l-18,17.8L161.2,112L65.9,227.5L50.2,213.5z"/>
			<path d="M87.7,89h-4.3V71.2h-6.1v-3.5h16.5v3.5h-6.1V89z M99.6,89h-4.1V73.2h4.1V89z M99.7,70.3h-4.2v-3.9h4.2V70.3z M107,73.2
				l0.1,2.4c0.5-0.8,1.2-1.5,2.1-2s1.8-0.7,2.8-0.7c1.1,0,2,0.2,2.7,0.7c0.7,0.4,1.3,1.2,1.8,2.1c0.5-0.9,1.2-1.6,2.1-2.1
				s1.9-0.7,2.9-0.7c2,0,3.3,0.6,4,1.9c0.7,1.2,1,2.9,1,5V89h-4.1v-7.7v-0.6c0-1.3-0.2-2.3-0.5-3.2c-0.3-0.8-0.9-1.2-1.9-1.2
				c-2.1,0-3.1,1.8-3.1,5.4V89h-4.1v-8.1v-1.1c0-0.9-0.2-1.7-0.5-2.4c-0.4-0.7-1-1-1.8-1c-1.1,0-1.9,0.5-2.4,1.5s-0.7,2.1-0.7,3.3
				V89h-4.1V77c0-1.4,0-2.7-0.1-3.9L107,73.2L107,73.2z M134.1,95.5H130V77.8c0-1.8-0.1-3.4-0.2-4.6h3.9l0.1,2.5
				c1.2-1.8,2.9-2.8,5.2-2.8c1.1,0,2,0.2,2.8,0.7c0.8,0.4,1.5,1,2,1.8s0.9,1.6,1.2,2.6s0.4,1.9,0.4,3c0,1.5-0.2,2.9-0.7,4.2
				c-0.4,1.3-1.2,2.3-2.1,3.1c-1,0.8-2.2,1.2-3.8,1.2c-1,0-1.9-0.2-2.8-0.6s-1.5-1-2-1.8c0.1,0.5,0.1,1.3,0.1,2.4L134.1,95.5
				L134.1,95.5z M141.2,81.1c0-0.8-0.1-1.6-0.3-2.3c-0.2-0.7-0.6-1.3-1.1-1.8s-1.2-0.7-2-0.7s-1.5,0.2-2.1,0.7s-1,1.1-1.2,1.8
				c-0.2,0.7-0.4,1.5-0.4,2.3c0,1.3,0.3,2.4,0.8,3.4c0.6,0.9,1.5,1.4,2.7,1.4c0.8,0,1.5-0.2,2-0.7s0.9-1.1,1.2-1.9
				C141,82.6,141.2,81.9,141.2,81.1z M172.1,84.7l0.2,3.8c-1.8,0.5-3.4,0.7-4.9,0.7c-1.7,0-3.2-0.2-4.6-0.7c-1.4-0.4-2.7-1.1-3.8-2
				s-1.9-2-2.5-3.4c-0.6-1.3-0.9-2.9-0.9-4.6s0.3-3.3,0.8-4.7c0.5-1.4,1.3-2.5,2.3-3.5s2.2-1.7,3.6-2.2c1.4-0.5,3-0.7,4.7-0.7
				c1.5,0,3.3,0.3,5.2,0.9l-0.3,3.7c-1.4-0.8-2.9-1.2-4.6-1.2c-1.4,0-2.6,0.3-3.7,0.9c-1.1,0.6-1.9,1.4-2.5,2.5s-0.8,2.3-0.8,3.7
				c0,1.4,0.3,2.8,0.9,3.9c0.6,1.2,1.5,2.1,2.6,2.7s2.4,1,3.9,1C169,85.6,170.5,85.3,172.1,84.7z M187.5,89h-3.7l-0.1-2.4
				c-0.5,0.8-1.2,1.5-2.1,2c-0.9,0.4-1.8,0.7-2.9,0.7c-1.1,0-2-0.2-2.8-0.5c-0.8-0.4-1.5-0.9-2-1.7c-0.5-0.8-0.7-1.7-0.7-2.7
				c0-2,0.8-3.3,2.3-4.1c1.6-0.7,3.4-1.1,5.7-1.1c0.3,0,0.5,0,0.6,0s0.3,0,0.6,0s0.7,0,1,0c0-1.2-0.3-2.1-0.9-2.6s-1.5-0.9-2.7-0.9
				c-1.8,0-3.4,0.6-4.9,1.7l-0.1-3.6c1.7-0.7,3.5-1.1,5.5-1.1c0.7,0,1.5,0.1,2.2,0.2s1.4,0.4,2,0.7c0.6,0.3,1.1,0.8,1.5,1.3
				c0.4,0.6,0.7,1.2,0.8,1.9c0.1,0.7,0.2,1.6,0.2,2.6s0,2.1,0,3.1s0,2,0,2.9C187.4,86.5,187.5,87.6,187.5,89z M183.7,81.8
				c-0.1,0-0.3,0-0.5,0h-0.5c-0.9,0-1.7,0.1-2.5,0.2c-0.7,0.1-1.4,0.3-2,0.8c-0.6,0.4-0.8,1-0.8,1.8c0,0.6,0.2,1.1,0.7,1.5
				s1.1,0.5,1.7,0.5c1.2,0,2.2-0.5,2.8-1.4C183.4,84.2,183.7,83.1,183.7,81.8z M199.6,89H195l-5.9-15.8h4.5l2.7,7.6
				c0.7,1.9,1.1,3.5,1.3,4.7c0.2-1.3,0.6-2.5,1-3.7l2.8-8.6h4.1L199.6,89z M219.9,84.8l0.1,3.5c-1.7,0.7-3.5,1.1-5.4,1.1
				c-1.3,0-2.5-0.2-3.5-0.5c-1-0.4-1.9-0.9-2.6-1.6c-0.7-0.7-1.3-1.6-1.6-2.6c-0.4-1-0.6-2.2-0.6-3.5c0-1.2,0.2-2.3,0.5-3.3
				c0.4-1,0.9-1.9,1.5-2.6c0.7-0.8,1.5-1.3,2.4-1.8c1-0.4,2.1-0.6,3.3-0.6s2.2,0.2,3.1,0.6c0.9,0.4,1.6,1,2.2,1.8
				c0.6,0.8,1,1.6,1.3,2.6s0.4,2.1,0.4,3.2c0,0.2,0,0.4,0,0.5s0,0.2,0,0.4c0,0.2,0,0.3,0,0.5h-10.7c0.1,1.2,0.6,2.2,1.5,2.9
				c0.9,0.7,2,1,3.2,1C216.4,86.4,218,85.8,219.9,84.8z M217.1,79.6c0-0.7-0.2-1.4-0.4-2s-0.6-1.1-1.1-1.4c-0.5-0.4-1.1-0.5-1.8-0.5
				s-1.4,0.2-1.9,0.5c-0.5,0.4-0.9,0.8-1.2,1.4s-0.5,1.2-0.5,2H217.1z M240.3,89H236V71.2h-6.1v-3.5h16.5v3.5h-6.1L240.3,89
				L240.3,89z M252.4,89h-4.1V77.9c-0.1-2.6-0.1-4.2-0.1-4.8h3.7l0.1,4c0.4-1.2,0.9-2.2,1.6-3c0.7-0.8,1.7-1.1,2.8-1.1
				c0.4,0,0.8,0.1,1.2,0.2V77c-0.5-0.1-1-0.2-1.4-0.2c-1,0-1.7,0.3-2.3,0.8s-1,1.2-1.2,2s-0.3,1.7-0.3,2.6v0.3L252.4,89L252.4,89z
				 M272.7,89H269l-0.1-2.4c-0.5,0.8-1.2,1.5-2.1,2c-0.9,0.4-1.8,0.7-2.9,0.7s-2-0.2-2.8-0.5c-0.8-0.4-1.5-0.9-2-1.7
				c-0.5-0.8-0.7-1.7-0.7-2.7c0-2,0.8-3.3,2.3-4.1c1.6-0.7,3.4-1.1,5.7-1.1c0.3,0,0.5,0,0.6,0s0.3,0,0.6,0c0.3,0,0.7,0,1,0
				c0-1.2-0.3-2.1-0.9-2.6s-1.5-0.9-2.7-0.9c-1.8,0-3.4,0.6-4.9,1.7l-0.1-3.6c1.7-0.7,3.5-1.1,5.5-1.1c0.7,0,1.5,0.1,2.2,0.2
				s1.4,0.4,2,0.7c0.6,0.3,1.1,0.8,1.5,1.3c0.4,0.6,0.7,1.2,0.8,1.9c0.1,0.7,0.2,1.6,0.2,2.6s0,2.1,0,3.1s0,2,0,2.9
				C272.6,86.5,272.6,87.6,272.7,89z M268.9,81.8c-0.1,0-0.3,0-0.5,0h-0.5c-0.9,0-1.7,0.1-2.5,0.2c-0.7,0.1-1.4,0.3-2,0.8
				c-0.6,0.4-0.8,1-0.8,1.8c0,0.6,0.2,1.1,0.7,1.5s1.1,0.5,1.7,0.5c1.2,0,2.2-0.5,2.8-1.4C268.5,84.2,268.9,83.1,268.9,81.8z
				 M280.1,89H276V73.2h4.1V89z M280.2,70.3H276v-3.9h4.2V70.3z M287.6,89h-4.1V66h4.1V89z"/>
			<path d="M161.8,52.8l0.2-1.9c0.8,0.5,1.6,0.7,2.4,0.7c0.5,0,0.9-0.1,1.3-0.4c0.4-0.2,0.6-0.6,0.6-1.1s-0.2-0.8-0.5-1
				s-0.9-0.5-1.7-0.8c-0.8-0.4-1.4-0.8-1.9-1.2c-0.4-0.4-0.6-1.1-0.6-1.9c0-0.7,0.2-1.2,0.5-1.7s0.8-0.8,1.4-1
				c0.6-0.2,1.2-0.3,1.9-0.3c0.9,0,1.8,0.1,2.5,0.4l-0.2,1.8c-0.8-0.4-1.5-0.5-2.2-0.5c-0.5,0-0.9,0.1-1.2,0.3s-0.5,0.5-0.5,1
				c0,0.4,0.1,0.7,0.4,0.9c0.3,0.2,0.8,0.4,1.7,0.8c0.9,0.4,1.6,0.8,2,1.3c0.4,0.4,0.6,1.1,0.6,1.9c0,0.6-0.1,1.1-0.3,1.5
				s-0.5,0.8-0.9,1c-0.4,0.3-0.8,0.5-1.3,0.6s-1,0.2-1.5,0.2C163.6,53.2,162.7,53.1,161.8,52.8z M174.4,51.3l0.1,1.6
				c-0.5,0.1-1,0.2-1.4,0.2c-0.7,0-1.2-0.1-1.6-0.4c-0.4-0.2-0.7-0.6-0.8-1.1c-0.2-0.5-0.2-1-0.2-1.7v-3.3H169v-1.5h1.5v-1.6l2-0.7
				v2.3h1.8v1.5h-1.8v2.9c0,0.6,0.1,1.1,0.2,1.4c0.1,0.3,0.5,0.5,1,0.5C173.9,51.4,174.2,51.4,174.4,51.3z M183.3,49.1
				c0,0.6-0.1,1.2-0.3,1.7s-0.5,0.9-0.8,1.3c-0.4,0.4-0.8,0.6-1.3,0.8s-1.1,0.3-1.7,0.3c-0.8,0-1.5-0.2-2.2-0.5
				c-0.6-0.4-1.1-0.9-1.4-1.5c-0.3-0.6-0.5-1.4-0.5-2.2s0.2-1.5,0.5-2.1s0.8-1.1,1.4-1.5c0.6-0.3,1.3-0.5,2.1-0.5
				c0.6,0,1.2,0.1,1.7,0.3s0.9,0.5,1.3,0.9c0.4,0.4,0.6,0.8,0.8,1.3C183.2,47.9,183.3,48.5,183.3,49.1z M181.2,49.1
				c0-0.4-0.1-0.8-0.2-1.3c-0.1-0.4-0.4-0.8-0.7-1c-0.3-0.3-0.7-0.4-1.1-0.4c-0.4,0-0.8,0.1-1.1,0.4c-0.3,0.3-0.5,0.6-0.7,1
				c-0.1,0.4-0.2,0.8-0.2,1.2s0.1,0.9,0.2,1.3c0.1,0.4,0.4,0.8,0.7,1c0.3,0.3,0.7,0.4,1.1,0.4c0.3,0,0.6-0.1,0.9-0.2
				c0.2-0.2,0.5-0.4,0.6-0.6c0.2-0.2,0.3-0.5,0.4-0.8C181.2,49.7,181.2,49.4,181.2,49.1z M186.7,56.2h-2.1v-8.9c0-0.9,0-1.7-0.1-2.3
				h2v1.2c0.6-0.9,1.5-1.4,2.6-1.4c0.5,0,1,0.1,1.4,0.3s0.7,0.5,1,0.9s0.5,0.8,0.6,1.3s0.2,1,0.2,1.5c0,0.8-0.1,1.4-0.3,2.1
				c-0.2,0.6-0.6,1.1-1.1,1.5S189.8,53,189,53c-0.5,0-1-0.1-1.4-0.3s-0.8-0.5-1-0.9c0,0.3,0,0.7,0,1.2v3.2H186.7z M190.3,49.1
				c0-0.4-0.1-0.8-0.2-1.2c-0.1-0.4-0.3-0.7-0.5-0.9s-0.6-0.4-1-0.4s-0.8,0.1-1,0.4c-0.3,0.2-0.5,0.5-0.6,0.9s-0.2,0.8-0.2,1.2
				c0,0.7,0.1,1.2,0.4,1.7c0.3,0.5,0.7,0.7,1.4,0.7c0.4,0,0.7-0.1,1-0.4c0.3-0.2,0.5-0.6,0.6-0.9C190.2,49.8,190.3,49.4,190.3,49.1z
				 M197.4,52.8l0.1-1.8c0.8,0.4,1.6,0.5,2.4,0.5c0.6,0,1.1-0.1,1.6-0.4c0.4-0.2,0.7-0.7,0.7-1.2c0-0.6-0.3-1-0.8-1.2
				s-1.2-0.3-1.9-0.3c-0.2,0-0.4,0-0.7,0v-1.7c0.2,0,0.4,0,0.7,0c0.7,0,1.3-0.1,1.9-0.3c0.5-0.2,0.8-0.6,0.8-1.2
				c0-0.3-0.1-0.5-0.3-0.7s-0.4-0.3-0.7-0.4c-0.3-0.1-0.6-0.1-0.9-0.1c-0.9,0-1.7,0.2-2.4,0.6l-0.1-1.8c1-0.3,2-0.5,2.9-0.5
				c1.1,0,2,0.2,2.6,0.7c0.7,0.4,1,1.2,1,2.2c0,0.4-0.1,0.7-0.3,1.1c-0.2,0.3-0.4,0.6-0.7,0.9c-0.3,0.2-0.6,0.4-1,0.4
				c0.5,0.2,0.9,0.3,1,0.4c0.3,0.2,0.6,0.6,0.8,1s0.3,0.9,0.3,1.3c0,0.7-0.2,1.3-0.6,1.7c-0.4,0.5-0.9,0.8-1.6,1
				c-0.6,0.2-1.3,0.3-2,0.3c-0.5,0-0.9,0-1.4-0.1C198.4,53,197.9,52.9,197.4,52.8z"/>
			<path class="st3" d="M37,491c92.5-24.8,278.3-85.1,281.5-127.5c4-53-171-11.5-171-56s106-10.5,106-38c0-33-100.5-2.5-100.5-42"/>
			<circle class="st4" cx="44" cy="488" r="13"/>
			<circle class="st4" cx="163" cy="452" r="13"/>
			<circle class="st4" cx="319" cy="359" r="13"/>
			<circle class="st4" cx="193" cy="329" r="13"/>
			<circle class="st4" cx="157" cy="232" r="13"/>
			<path class="st5" d="M319,304c-3.7,0-7.3,1.5-9.9,4.1c-2.6,2.7-4.1,6.2-4.1,10c0,3.1,1,6,2.8,8.5c0,0,0.4,0.5,0.4,0.6L319,340
				l10.7-12.8c0.1-0.1,0.4-0.6,0.4-0.6l0,0c1.8-2.4,2.8-5.4,2.8-8.5c0-3.8-1.5-7.3-4.1-10C326.3,305.5,322.7,304,319,304z
				 M319,323.3c-1,0-2-0.3-2.8-0.9s-1.5-1.4-1.9-2.3s-0.5-2-0.3-3s0.7-1.9,1.4-2.6c0.7-0.7,1.6-1.2,2.6-1.4c1-0.2,2-0.1,2.9,0.3
				s1.7,1,2.3,1.9c0.6,0.8,0.9,1.8,0.9,2.9c0,1.4-0.5,2.7-1.5,3.6C321.6,322.7,320.4,323.3,319,323.3z"/>
			<circle class="st5" cx="44" cy="488" r="6"/>
			<circle class="st5" cx="163" cy="452" r="6"/>
			<circle class="st5" cx="319" cy="359" r="6"/>
		</g>
	</g>
</g>
</svg>
