<svg width="375" height="187" viewBox="0 0 375 187" fill="none" xmlns="http://www.w3.org/2000/svg">
<rect width="398.039" height="150.49" transform="matrix(1 0 0 -1 -11.1666 166.304)" fill="black"/>
<path d="M1.50352 100.261L-19.5 87.7801L-19.5 6.49965L386.873 6.49965L386.873 87.4757L363.434 91.7376L352.475 88.6934L348.214 85.6491L333.298 81.6917L330.559 79.8651L311.686 79.8651L303.772 78.6475L299.618 83.5182L297.684 85.6491L295.248 89.6066L283.073 97.2172L273.636 91.7376L268.157 83.5182L260.243 87.4757L257.706 89.0977L252.328 91.7376L231.02 87.4757L215.192 84.127L201.494 79.8651L186.882 74.9944L170.749 73.1679L160.4 74.9944L137.265 84.127L134.526 88.9978L120.219 99.0437L105.912 89.6066L96.476 89.6066L85.822 95.3906L76.0813 92.042L61.4701 96.9127L44.1194 98.1304L30.7258 97.5216L17.9411 102.088L10.6355 99.6525L1.50352 100.261Z" fill="#726559"/>
<path d="M10.8922 80.5196L-13.6176 72.6765L-13.6176 9.93135L389.324 9.93135L389.324 58.4608L371.186 66.7941L354.52 52.0882L318.735 58.4608L268.98 58.4608L244.961 66.7941L219.226 47.4314L203.049 58.4608L162.853 52.0882L126.088 58.4608L91.7746 75.8627L68.4903 72.6765L36.1373 75.8627L10.8922 80.5196Z" fill="#514742"/>
<path d="M18.6741 59.5L-14 50.4638L-14 0L387 0L387 40.4928L369.425 40.4928L350.861 37.3768L334.771 37.3768L321.404 44.2319L297.889 37.3768L275.116 50.4638L253.086 37.3768L234.769 27.4058L195.164 27.4058L161.499 27.4058C154.156 31.7681 138.479 40.4928 134.519 40.4928C130.558 40.4928 112.406 42.9855 103.825 44.2319L79.8142 40.4928L47.1401 40.4928L18.6741 59.5Z" fill="#333333"/>
<path d="M4.02954 116.059L-11.6567 108.216L-11.6567 176.5L386.628 176.5L386.628 96.6959L360.647 100.127L355.255 105.029L348.147 104.294L344.716 98.1665L325.108 91.0587L305.255 92.0391L298.392 100.127L287.608 107.48L279.03 105.765L267.755 100.127L254.52 105.029L247.167 98.1665L234.667 98.1665L220.696 94.2449L199.128 88.8528L184.667 83.9508L167.265 82.2351L145.451 92.5293L124.128 110.912L119.716 106.01L109.912 100.372L105.01 99.1469L90.7943 108.216L79.7648 105.029L52.804 110.912L33.9315 110.912L17.2648 114.098L4.02954 116.059Z" fill="#726559"/>
<path d="M3.92453 126.375L-13 122.812L-13 177L390 177L390 116.25L368.17 109.875L360.811 114.75L342.66 114.75L338.491 109.875L327.208 114.75L310.038 107.063L284.038 119.438L267.358 126.375L251.66 116.25L227.623 107.063L188.623 102L174.887 107.063L163.358 104.625L125.094 126.375L108.415 116.25L93.4528 119.438L81.1887 116.25L64.0189 122.813L34.8302 122.813L3.92453 126.375Z" fill="#514742"/>
<path d="M0.521845 147.933L-11 147.933L-11 187L393 187L393 138.644H387.852L370.692 134L358.68 143.562C348.71 148.57 328.919 155.856 327.546 155.856C326.173 155.856 317.005 153.124 312.837 150.392L280.968 143.562L255.228 147.933L229.978 147.933L197.864 138.644L177.272 147.933L149.57 150.392L125.791 140.83L104.954 134L89.2646 140.83L69.5 143.562L43.5 147.933L16.5 143.562L0.521845 147.933Z" fill="#333333"/>
</svg>
